<svg xmlns="http://www.w3.org/2000/svg" viewBox="0 0 381.41 77.35" >
 <path d="M24.66,4.87a15.93,15.93,0,0,0-6.81,1.22,4.19,4.19,0,0,0-2.53,4.06,4.73,4.73,0,0,0,0,.63l1.55,15.14A16.12,16.12,0,0,1,17,27.73a8,8,0,0,1-1.75,5.56A9,9,0,0,1,10,35.85a9.23,9.23,0,0,1,5.29,2.46c1.15,1.22,1.72,3,1.72,5.48,0,.62,0,1.28-.11,2L15.36,60.92a4.73,4.73,0,0,0,0,.63q0,5.28,9.34,5.28V71.7q-6.68,0-10.87-2.27C11,67.92,9.6,65.35,9.6,61.74a12.57,12.57,0,0,1,.07-1.56l1.48-14a11,11,0,0,0,.07-1.47,5.9,5.9,0,0,0-1-3.55,6.35,6.35,0,0,0-3.45-2.08A25.16,25.16,0,0,0,0,38.33V33.38a26.14,26.14,0,0,0,6.78-.7,6.28,6.28,0,0,0,3.45-2.07,5.83,5.83,0,0,0,1-3.51,11.27,11.27,0,0,0-.07-1.48L9.67,11.52A12.5,12.5,0,0,1,9.6,10q0-5.43,4.19-7.7A22.78,22.78,0,0,1,24.66,0Z" />
 <path d="M69.1,61.79a22,22,0,0,1-5.59.76,15.31,15.31,0,0,1-7-1.5A10.6,10.6,0,0,1,52,56.9a11.79,11.79,0,0,1-1.55-6.09V27.62H41.5v-4.8h8.94V14l6.2-.73v9.56H70.08l-.74,4.8H56.64V50.73a6.56,6.56,0,0,0,1.75,5c1.17,1.1,3.06,1.66,5.67,1.66a15.82,15.82,0,0,0,7.46-1.85l2.4,4.21A16.2,16.2,0,0,1,69.1,61.79Z" />
 <path d="M107.65,55.75a5.1,5.1,0,0,0,2.6-4.5,6.57,6.57,0,0,0-.68-3.16,6.26,6.26,0,0,0-2.7-2.27,29.64,29.64,0,0,0-6-2,41.13,41.13,0,0,1-7.3-2.42A11.26,11.26,0,0,1,89.15,38a8.72,8.72,0,0,1-1.57-5.36A9,9,0,0,1,89.43,27a11.65,11.65,0,0,1,5.18-3.69A21.43,21.43,0,0,1,102.35,22a25.07,25.07,0,0,1,7.92,1.16,21.61,21.61,0,0,1,6.18,3.12l-2.73,4.21a21.12,21.12,0,0,0-5.11-2.57,19.45,19.45,0,0,0-6.19-.9Q98,27,96,28.38A4.58,4.58,0,0,0,95,35a8,8,0,0,0,3.06,2,58.37,58.37,0,0,0,6.33,2,36,36,0,0,1,6.91,2.55,11.14,11.14,0,0,1,4.21,3.68A10.19,10.19,0,0,1,117,51a9.56,9.56,0,0,1-2.29,6.56,13.28,13.28,0,0,1-6,3.82,25.86,25.86,0,0,1-8.1,1.22q-9.17,0-15.22-5.25l3.55-4.09a17.81,17.81,0,0,0,5.35,3.1,18,18,0,0,0,6.32,1.11A13,13,0,0,0,107.65,55.75Z" />
 <path d="M141.17,26.92a6,6,0,0,1,2.14-2.16,5.84,5.84,0,0,1,3-.8,6,6,0,0,1,3.07.8,5.89,5.89,0,0,1,2.16,2.16,5.81,5.81,0,0,1,.79,3,6,6,0,0,1-3,5.2,5.81,5.81,0,0,1-3.07.82,5.67,5.67,0,0,1-3-.82,6.07,6.07,0,0,1-2.14-2.19,6,6,0,0,1-.79-3A5.81,5.81,0,0,1,141.17,26.92Zm0,26.66a6,6,0,0,1,2.14-2.18,5.76,5.76,0,0,1,3-.82,6,6,0,0,1,5.23,3,5.75,5.75,0,0,1,.79,3,6,6,0,0,1-.79,3,5.84,5.84,0,0,1-2.16,2.17,6,6,0,0,1-3.07.8,5.84,5.84,0,0,1-3-.8,5.94,5.94,0,0,1-2.14-2.17,6,6,0,0,1-.79-3A5.75,5.75,0,0,1,141.17,53.58Z" />
 <path d="M201.41,55.46q0,9.42-6.28,14.64t-18.49,7.25l-1-4.8Q185,71,190.11,67.13t5.1-11.27V27.73H179V22.82h22.37ZM198.92,5.85a4.13,4.13,0,0,1,1.27,3.09,4.26,4.26,0,0,1-1.27,3.17,4.5,4.5,0,0,1-3.31,1.26,4.29,4.29,0,0,1-3.19-1.26,4.35,4.35,0,0,1-1.24-3.17,4.21,4.21,0,0,1,1.24-3.09,4.34,4.34,0,0,1,3.19-1.23A4.56,4.56,0,0,1,198.92,5.85Z" />
 <path d="M248.86,56.58a4.27,4.27,0,0,0,2.43,1.61l-1.51,4.36q-5.61-.75-7.13-5.47a13.08,13.08,0,0,1-5.22,4.08,17.07,17.07,0,0,1-7,1.39,14.34,14.34,0,0,1-6.68-1.48,10.26,10.26,0,0,1-4.36-4.19,12.78,12.78,0,0,1-1.51-6.33,10.52,10.52,0,0,1,4.68-9.23q4.69-3.21,13.56-3.22h5.72V34.85c0-2.7-.79-4.67-2.36-5.88s-3.88-1.83-6.91-1.83a31.29,31.29,0,0,0-10.12,2l-1.62-4.69A36.14,36.14,0,0,1,233.57,22q7.13,0,10.84,3.34t3.71,9.21V53.21A6,6,0,0,0,248.86,56.58Zm-11.32-.22a12.59,12.59,0,0,0,4.34-4v-10h-5.61c-4.12,0-7.09.71-8.94,2.11a7.13,7.13,0,0,0-2.77,6q0,7.35,7.5,7.35A11,11,0,0,0,237.54,56.36Z" />
 <path d="M292.74,27.29q3.3,5.28,3.3,15a30.8,30.8,0,0,1-1.66,10.58,15.34,15.34,0,0,1-5,7.14,13.19,13.19,0,0,1-8.29,2.59A12.78,12.78,0,0,1,270.79,58V76.58l-6.2.77V22.82h5.27l.52,5.43a14.93,14.93,0,0,1,5.12-4.64A13.41,13.41,0,0,1,282,22Q289.43,22,292.74,27.29Zm-17.69,1.47a17.33,17.33,0,0,0-4.26,4.47V52.5a11.31,11.31,0,0,0,3.86,3.59,10.14,10.14,0,0,0,5,1.29A8.09,8.09,0,0,0,287,53.65q2.41-3.74,2.42-11.45t-2.18-11.44A7.24,7.24,0,0,0,280.5,27,9.13,9.13,0,0,0,275.05,28.76Z" />
 <path d="M328.57,56.79h11V61.7H310.37V56.79h12V27.73H310.74V22.82h17.83ZM326.91,5.85a4.15,4.15,0,0,1,1.26,3.09,4.29,4.29,0,0,1-1.26,3.17,4.44,4.44,0,0,1-3.29,1.26,4.32,4.32,0,0,1-4.46-4.43,4.15,4.15,0,0,1,1.25-3.09,4.41,4.41,0,0,1,3.21-1.23A4.5,4.5,0,0,1,326.91,5.85Z" />
 <path d="M367.62,2.27q4.19,2.27,4.19,7.7a12.15,12.15,0,0,1-.08,1.55l-1.47,14.1c-.05.55-.08.95-.08,1.22a5.4,5.4,0,0,0,2.59,4.91q2.58,1.64,8.64,1.63v4.95c-4,0-6.89.54-8.62,1.64a5.47,5.47,0,0,0-2.61,5c0,.27,0,.67.08,1.21l1.47,14a12.21,12.21,0,0,1,.08,1.56c0,3.61-1.4,6.18-4.19,7.69s-6.42,2.27-10.88,2.27V66.83q9.35,0,9.34-5.28a5.06,5.06,0,0,0,0-.63L364.5,45.78a17.67,17.67,0,0,1-.11-2q0-3.74,1.84-5.5c1.23-1.18,3.23-2,6-2.36a10.44,10.44,0,0,1-5.92-2.63,7.7,7.7,0,0,1-1.9-5.61,13.78,13.78,0,0,1,.11-1.77l1.55-15.14a5.06,5.06,0,0,0,0-.63,4.19,4.19,0,0,0-2.52-4.06,16,16,0,0,0-6.82-1.22V0A22.83,22.83,0,0,1,367.62,2.27Z" />
</svg>